<svg width="416" height="361" viewBox="0 0 416 361" fill="none" xmlns="http://www.w3.org/2000/svg">
<path fill-rule="evenodd" clip-rule="evenodd" d="M307.06 354.395L302.235 360.998H286.894L292.152 354.395H307.06ZM324.753 354.395L319.928 360.998H304.586L309.844 354.395H324.753ZM343.311 354.395L338.486 360.998H323.144L328.403 354.395H343.311ZM361.127 354.395L356.302 360.998H340.96L346.219 354.395H361.127ZM374.861 354.395L379.067 360.998H359.271L364.035 354.395H374.861Z" fill="#4CEAFF"/>
<path fill-rule="evenodd" clip-rule="evenodd" d="M12.6491 357.196L1.68761 346.124L1 22.4145L19.7418 2.20312H215.198L222.852 8.00912H355.034L362.286 2.20312H404.683L415 11.3959V337.128L396.946 356.504H387.274L378.892 348.2H290.555L280.238 358.788L12.6491 357.196Z" fill="url(#paint0_linear_738_8212)" fill-opacity="0.95"/>
<path d="M1 41.8236V24.9015L19.594 2.20312H215.798L223.128 11.1523H354.153L361.484 2.20312H404.537L415 14.9761V41.8236" stroke="#00E0FF" stroke-width="1.8"/>
<path d="M1 319.164V344.905L12.263 358.785H280.51L288.707 349.363H378.478L386.742 358.785H396.473L415 335.567V319.164" stroke="#00E0FF" stroke-width="1.8"/>
<path fill-rule="evenodd" clip-rule="evenodd" d="M222.841 0H355.633L351.465 6.60342H226.496L222.841 0Z" fill="#4CEAFF"/>
<defs>
<linearGradient id="paint0_linear_738_8212" x1="207.374" y1="2.24044" x2="209.633" y2="436.011" gradientUnits="userSpaceOnUse">
<stop stop-color="#002D40"/>
<stop offset="1" stop-color="#003769"/>
</linearGradient>
</defs>
</svg>
